<svg width="1326" height="306" viewBox="0 0 1326 306" fill="none" xmlns="http://www.w3.org/2000/svg">
<circle cx="33" cy="3" r="3" fill="white"/>
<circle cx="63" cy="3" r="3" fill="white"/>
<circle cx="93" cy="3" r="3" fill="white"/>
<circle cx="123" cy="3" r="3" fill="white"/>
<circle cx="153" cy="3" r="3" fill="white"/>
<circle cx="183" cy="3" r="3" fill="white"/>
<circle cx="213" cy="3" r="3" fill="white"/>
<circle cx="243" cy="3" r="3" fill="white"/>
<circle cx="273" cy="3" r="3" fill="white"/>
<circle cx="303" cy="3" r="3" fill="white"/>
<circle cx="333" cy="3" r="3" fill="white"/>
<circle cx="363" cy="3" r="3" fill="white"/>
<circle cx="393" cy="3" r="3" fill="white"/>
<circle cx="423" cy="3" r="3" fill="white"/>
<circle cx="453" cy="3" r="3" fill="white"/>
<circle cx="483" cy="3" r="3" fill="white"/>
<circle cx="513" cy="3" r="3" fill="white"/>
<circle cx="543" cy="3" r="3" fill="white"/>
<circle cx="573" cy="3" r="3" fill="white"/>
<circle cx="603" cy="3" r="3" fill="white"/>
<circle cx="633" cy="3" r="3" fill="white"/>
<circle cx="663" cy="3" r="3" fill="white"/>
<circle cx="693" cy="3" r="3" fill="white"/>
<circle cx="723" cy="3" r="3" fill="white"/>
<circle cx="753" cy="3" r="3" fill="white"/>
<circle cx="783" cy="3" r="3" fill="white"/>
<circle cx="813" cy="3" r="3" fill="white"/>
<circle cx="843" cy="3" r="3" fill="white"/>
<circle cx="873" cy="3" r="3" fill="white"/>
<circle cx="903" cy="3" r="3" fill="white"/>
<circle cx="933" cy="3" r="3" fill="white"/>
<circle cx="963" cy="3" r="3" fill="white"/>
<circle cx="993" cy="3" r="3" fill="white"/>
<circle cx="1023" cy="3" r="3" fill="white"/>
<circle cx="1053" cy="3" r="3" fill="white"/>
<circle cx="1083" cy="3" r="3" fill="white"/>
<circle cx="1113" cy="3" r="3" fill="white"/>
<circle cx="1143" cy="3" r="3" fill="white"/>
<circle cx="1173" cy="3" r="3" fill="white"/>
<circle cx="1203" cy="3" r="3" fill="white"/>
<circle cx="33" cy="33" r="3" fill="white"/>
<circle cx="63" cy="33" r="3" fill="white"/>
<circle cx="93" cy="33" r="3" fill="white"/>
<circle cx="123" cy="33" r="3" fill="white"/>
<circle cx="153" cy="33" r="3" fill="white"/>
<circle cx="183" cy="33" r="3" fill="white"/>
<circle cx="213" cy="33" r="3" fill="white"/>
<circle cx="243" cy="33" r="3" fill="white"/>
<circle cx="273" cy="33" r="3" fill="white"/>
<circle cx="303" cy="33" r="3" fill="white"/>
<circle cx="333" cy="33" r="3" fill="white"/>
<circle cx="363" cy="33" r="3" fill="white"/>
<circle cx="393" cy="33" r="3" fill="white"/>
<circle cx="423" cy="33" r="3" fill="white"/>
<circle cx="453" cy="33" r="3" fill="white"/>
<circle cx="483" cy="33" r="3" fill="white"/>
<circle cx="513" cy="33" r="3" fill="white"/>
<circle cx="543" cy="33" r="3" fill="white"/>
<circle cx="573" cy="33" r="3" fill="white"/>
<circle cx="603" cy="33" r="3" fill="white"/>
<circle cx="633" cy="33" r="3" fill="white"/>
<circle cx="663" cy="33" r="3" fill="white"/>
<circle cx="693" cy="33" r="3" fill="white"/>
<circle cx="723" cy="33" r="3" fill="white"/>
<circle cx="753" cy="33" r="3" fill="white"/>
<circle cx="783" cy="33" r="3" fill="white"/>
<circle cx="813" cy="33" r="3" fill="white"/>
<circle cx="843" cy="33" r="3" fill="white"/>
<circle cx="873" cy="33" r="3" fill="white"/>
<circle cx="903" cy="33" r="3" fill="white"/>
<circle cx="933" cy="33" r="3" fill="white"/>
<circle cx="963" cy="33" r="3" fill="white"/>
<circle cx="993" cy="33" r="3" fill="white"/>
<circle cx="1023" cy="33" r="3" fill="white"/>
<circle cx="1053" cy="33" r="3" fill="white"/>
<circle cx="1083" cy="33" r="3" fill="white"/>
<circle cx="1113" cy="33" r="3" fill="white"/>
<circle cx="1143" cy="33" r="3" fill="white"/>
<circle cx="1173" cy="33" r="3" fill="white"/>
<circle cx="1203" cy="33" r="3" fill="white"/>
<circle cx="33" cy="63" r="3" fill="white"/>
<circle cx="63" cy="63" r="3" fill="white"/>
<circle cx="93" cy="63" r="3" fill="white"/>
<circle cx="123" cy="63" r="3" fill="white"/>
<circle cx="153" cy="63" r="3" fill="white"/>
<circle cx="183" cy="63" r="3" fill="white"/>
<circle cx="213" cy="63" r="3" fill="white"/>
<circle cx="243" cy="63" r="3" fill="white"/>
<circle cx="273" cy="63" r="3" fill="white"/>
<circle cx="303" cy="63" r="3" fill="white"/>
<circle cx="333" cy="63" r="3" fill="white"/>
<circle cx="363" cy="63" r="3" fill="white"/>
<circle cx="393" cy="63" r="3" fill="white"/>
<circle cx="423" cy="63" r="3" fill="white"/>
<circle cx="453" cy="63" r="3" fill="white"/>
<circle cx="483" cy="63" r="3" fill="white"/>
<circle cx="513" cy="63" r="3" fill="white"/>
<circle cx="543" cy="63" r="3" fill="white"/>
<circle cx="573" cy="63" r="3" fill="white"/>
<circle cx="603" cy="63" r="3" fill="white"/>
<circle cx="633" cy="63" r="3" fill="white"/>
<circle cx="663" cy="63" r="3" fill="white"/>
<circle cx="693" cy="63" r="3" fill="white"/>
<circle cx="723" cy="63" r="3" fill="white"/>
<circle cx="753" cy="63" r="3" fill="white"/>
<circle cx="783" cy="63" r="3" fill="white"/>
<circle cx="813" cy="63" r="3" fill="white"/>
<circle cx="843" cy="63" r="3" fill="white"/>
<circle cx="873" cy="63" r="3" fill="white"/>
<circle cx="903" cy="63" r="3" fill="white"/>
<circle cx="933" cy="63" r="3" fill="white"/>
<circle cx="963" cy="63" r="3" fill="white"/>
<circle cx="993" cy="63" r="3" fill="white"/>
<circle cx="1023" cy="63" r="3" fill="white"/>
<circle cx="1053" cy="63" r="3" fill="white"/>
<circle cx="1083" cy="63" r="3" fill="white"/>
<circle cx="1113" cy="63" r="3" fill="white"/>
<circle cx="1143" cy="63" r="3" fill="white"/>
<circle cx="1173" cy="63" r="3" fill="white"/>
<circle cx="1203" cy="63" r="3" fill="white"/>
<circle cx="33" cy="93" r="3" fill="white"/>
<circle cx="63" cy="93" r="3" fill="white"/>
<circle cx="93" cy="93" r="3" fill="white"/>
<circle cx="123" cy="93" r="3" fill="white"/>
<circle cx="153" cy="93" r="3" fill="white"/>
<circle cx="183" cy="93" r="3" fill="white"/>
<circle cx="213" cy="93" r="3" fill="white"/>
<circle cx="243" cy="93" r="3" fill="white"/>
<circle cx="273" cy="93" r="3" fill="white"/>
<circle cx="303" cy="93" r="3" fill="white"/>
<circle cx="333" cy="93" r="3" fill="white"/>
<circle cx="363" cy="93" r="3" fill="white"/>
<circle cx="393" cy="93" r="3" fill="white"/>
<circle cx="423" cy="93" r="3" fill="white"/>
<circle cx="453" cy="93" r="3" fill="white"/>
<circle cx="483" cy="93" r="3" fill="white"/>
<circle cx="513" cy="93" r="3" fill="white"/>
<circle cx="543" cy="93" r="3" fill="white"/>
<circle cx="573" cy="93" r="3" fill="white"/>
<circle cx="603" cy="93" r="3" fill="white"/>
<circle cx="633" cy="93" r="3" fill="white"/>
<circle cx="663" cy="93" r="3" fill="white"/>
<circle cx="693" cy="93" r="3" fill="white"/>
<circle cx="723" cy="93" r="3" fill="white"/>
<circle cx="753" cy="93" r="3" fill="white"/>
<circle cx="783" cy="93" r="3" fill="white"/>
<circle cx="813" cy="93" r="3" fill="white"/>
<circle cx="843" cy="93" r="3" fill="white"/>
<circle cx="873" cy="93" r="3" fill="white"/>
<circle cx="903" cy="93" r="3" fill="white"/>
<circle cx="933" cy="93" r="3" fill="white"/>
<circle cx="963" cy="93" r="3" fill="white"/>
<circle cx="993" cy="93" r="3" fill="white"/>
<circle cx="1023" cy="93" r="3" fill="white"/>
<circle cx="1053" cy="93" r="3" fill="white"/>
<circle cx="1083" cy="93" r="3" fill="white"/>
<circle cx="1113" cy="93" r="3" fill="white"/>
<circle cx="1143" cy="93" r="3" fill="white"/>
<circle cx="1173" cy="93" r="3" fill="white"/>
<circle cx="1203" cy="93" r="3" fill="white"/>
<circle cx="33" cy="123" r="3" fill="white"/>
<circle cx="63" cy="123" r="3" fill="white"/>
<circle cx="93" cy="123" r="3" fill="white"/>
<circle cx="123" cy="123" r="3" fill="white"/>
<circle cx="153" cy="123" r="3" fill="white"/>
<circle cx="183" cy="123" r="3" fill="white"/>
<circle cx="213" cy="123" r="3" fill="white"/>
<circle cx="243" cy="123" r="3" fill="white"/>
<circle cx="273" cy="123" r="3" fill="white"/>
<circle cx="303" cy="123" r="3" fill="white"/>
<circle cx="333" cy="123" r="3" fill="white"/>
<circle cx="363" cy="123" r="3" fill="white"/>
<circle cx="393" cy="123" r="3" fill="white"/>
<circle cx="423" cy="123" r="3" fill="white"/>
<circle cx="453" cy="123" r="3" fill="white"/>
<circle cx="483" cy="123" r="3" fill="white"/>
<circle cx="513" cy="123" r="3" fill="white"/>
<circle cx="543" cy="123" r="3" fill="white"/>
<circle cx="573" cy="123" r="3" fill="white"/>
<circle cx="603" cy="123" r="3" fill="white"/>
<circle cx="633" cy="123" r="3" fill="white"/>
<circle cx="663" cy="123" r="3" fill="white"/>
<circle cx="693" cy="123" r="3" fill="white"/>
<circle cx="723" cy="123" r="3" fill="white"/>
<circle cx="753" cy="123" r="3" fill="white"/>
<circle cx="783" cy="123" r="3" fill="white"/>
<circle cx="813" cy="123" r="3" fill="white"/>
<circle cx="843" cy="123" r="3" fill="white"/>
<circle cx="873" cy="123" r="3" fill="white"/>
<circle cx="903" cy="123" r="3" fill="white"/>
<circle cx="933" cy="123" r="3" fill="white"/>
<circle cx="963" cy="123" r="3" fill="white"/>
<circle cx="993" cy="123" r="3" fill="white"/>
<circle cx="1023" cy="123" r="3" fill="white"/>
<circle cx="1053" cy="123" r="3" fill="white"/>
<circle cx="1083" cy="123" r="3" fill="white"/>
<circle cx="1113" cy="123" r="3" fill="white"/>
<circle cx="1143" cy="123" r="3" fill="white"/>
<circle cx="1173" cy="123" r="3" fill="white"/>
<circle cx="1203" cy="123" r="3" fill="white"/>
<circle cx="33" cy="153" r="3" fill="white"/>
<circle cx="63" cy="153" r="3" fill="white"/>
<circle cx="93" cy="153" r="3" fill="white"/>
<circle cx="123" cy="153" r="3" fill="white"/>
<circle cx="153" cy="153" r="3" fill="white"/>
<circle cx="183" cy="153" r="3" fill="white"/>
<circle cx="213" cy="153" r="3" fill="white"/>
<circle cx="243" cy="153" r="3" fill="white"/>
<circle cx="273" cy="153" r="3" fill="white"/>
<circle cx="303" cy="153" r="3" fill="white"/>
<circle cx="333" cy="153" r="3" fill="white"/>
<circle cx="363" cy="153" r="3" fill="white"/>
<circle cx="393" cy="153" r="3" fill="white"/>
<circle cx="423" cy="153" r="3" fill="white"/>
<circle cx="453" cy="153" r="3" fill="white"/>
<circle cx="483" cy="153" r="3" fill="white"/>
<circle cx="513" cy="153" r="3" fill="white"/>
<circle cx="543" cy="153" r="3" fill="white"/>
<circle cx="573" cy="153" r="3" fill="white"/>
<circle cx="603" cy="153" r="3" fill="white"/>
<circle cx="633" cy="153" r="3" fill="white"/>
<circle cx="663" cy="153" r="3" fill="white"/>
<circle cx="693" cy="153" r="3" fill="white"/>
<circle cx="723" cy="153" r="3" fill="white"/>
<circle cx="753" cy="153" r="3" fill="white"/>
<circle cx="783" cy="153" r="3" fill="white"/>
<circle cx="813" cy="153" r="3" fill="white"/>
<circle cx="843" cy="153" r="3" fill="white"/>
<circle cx="873" cy="153" r="3" fill="white"/>
<circle cx="903" cy="153" r="3" fill="white"/>
<circle cx="933" cy="153" r="3" fill="white"/>
<circle cx="963" cy="153" r="3" fill="white"/>
<circle cx="993" cy="153" r="3" fill="white"/>
<circle cx="1023" cy="153" r="3" fill="white"/>
<circle cx="1053" cy="153" r="3" fill="white"/>
<circle cx="1083" cy="153" r="3" fill="white"/>
<circle cx="1113" cy="153" r="3" fill="white"/>
<circle cx="1143" cy="153" r="3" fill="white"/>
<circle cx="1173" cy="153" r="3" fill="white"/>
<circle cx="1203" cy="153" r="3" fill="white"/>
<circle cx="33" cy="183" r="3" fill="white"/>
<circle cx="63" cy="183" r="3" fill="white"/>
<circle cx="93" cy="183" r="3" fill="white"/>
<circle cx="123" cy="183" r="3" fill="white"/>
<circle cx="153" cy="183" r="3" fill="white"/>
<circle cx="183" cy="183" r="3" fill="white"/>
<circle cx="213" cy="183" r="3" fill="white"/>
<circle cx="243" cy="183" r="3" fill="white"/>
<circle cx="273" cy="183" r="3" fill="white"/>
<circle cx="303" cy="183" r="3" fill="white"/>
<circle cx="333" cy="183" r="3" fill="white"/>
<circle cx="363" cy="183" r="3" fill="white"/>
<circle cx="393" cy="183" r="3" fill="white"/>
<circle cx="423" cy="183" r="3" fill="white"/>
<circle cx="453" cy="183" r="3" fill="white"/>
<circle cx="483" cy="183" r="3" fill="white"/>
<circle cx="513" cy="183" r="3" fill="white"/>
<circle cx="543" cy="183" r="3" fill="white"/>
<circle cx="573" cy="183" r="3" fill="white"/>
<circle cx="603" cy="183" r="3" fill="white"/>
<circle cx="633" cy="183" r="3" fill="white"/>
<circle cx="663" cy="183" r="3" fill="white"/>
<circle cx="693" cy="183" r="3" fill="white"/>
<circle cx="723" cy="183" r="3" fill="white"/>
<circle cx="753" cy="183" r="3" fill="white"/>
<circle cx="783" cy="183" r="3" fill="white"/>
<circle cx="813" cy="183" r="3" fill="white"/>
<circle cx="843" cy="183" r="3" fill="white"/>
<circle cx="873" cy="183" r="3" fill="white"/>
<circle cx="903" cy="183" r="3" fill="white"/>
<circle cx="933" cy="183" r="3" fill="white"/>
<circle cx="963" cy="183" r="3" fill="white"/>
<circle cx="993" cy="183" r="3" fill="white"/>
<circle cx="1023" cy="183" r="3" fill="white"/>
<circle cx="1053" cy="183" r="3" fill="white"/>
<circle cx="1083" cy="183" r="3" fill="white"/>
<circle cx="1113" cy="183" r="3" fill="white"/>
<circle cx="1143" cy="183" r="3" fill="white"/>
<circle cx="1173" cy="183" r="3" fill="white"/>
<circle cx="1203" cy="183" r="3" fill="white"/>
<circle cx="33" cy="213" r="3" fill="white"/>
<circle cx="63" cy="213" r="3" fill="white"/>
<circle cx="93" cy="213" r="3" fill="white"/>
<circle cx="123" cy="213" r="3" fill="white"/>
<circle cx="153" cy="213" r="3" fill="white"/>
<circle cx="183" cy="213" r="3" fill="white"/>
<circle cx="213" cy="213" r="3" fill="white"/>
<circle cx="243" cy="213" r="3" fill="white"/>
<circle cx="273" cy="213" r="3" fill="white"/>
<circle cx="303" cy="213" r="3" fill="white"/>
<circle cx="333" cy="213" r="3" fill="white"/>
<circle cx="363" cy="213" r="3" fill="white"/>
<circle cx="393" cy="213" r="3" fill="white"/>
<circle cx="423" cy="213" r="3" fill="white"/>
<circle cx="453" cy="213" r="3" fill="white"/>
<circle cx="483" cy="213" r="3" fill="white"/>
<circle cx="513" cy="213" r="3" fill="white"/>
<circle cx="543" cy="213" r="3" fill="white"/>
<circle cx="573" cy="213" r="3" fill="white"/>
<circle cx="603" cy="213" r="3" fill="white"/>
<circle cx="633" cy="213" r="3" fill="white"/>
<circle cx="663" cy="213" r="3" fill="white"/>
<circle cx="693" cy="213" r="3" fill="white"/>
<circle cx="723" cy="213" r="3" fill="white"/>
<circle cx="753" cy="213" r="3" fill="white"/>
<circle cx="783" cy="213" r="3" fill="white"/>
<circle cx="813" cy="213" r="3" fill="white"/>
<circle cx="843" cy="213" r="3" fill="white"/>
<circle cx="873" cy="213" r="3" fill="white"/>
<circle cx="903" cy="213" r="3" fill="white"/>
<circle cx="933" cy="213" r="3" fill="white"/>
<circle cx="963" cy="213" r="3" fill="white"/>
<circle cx="993" cy="213" r="3" fill="white"/>
<circle cx="1023" cy="213" r="3" fill="white"/>
<circle cx="1053" cy="213" r="3" fill="white"/>
<circle cx="1083" cy="213" r="3" fill="white"/>
<circle cx="1113" cy="213" r="3" fill="white"/>
<circle cx="1143" cy="213" r="3" fill="white"/>
<circle cx="1173" cy="213" r="3" fill="white"/>
<circle cx="1203" cy="213" r="3" fill="white"/>
<circle cx="33" cy="243" r="3" fill="white"/>
<circle cx="63" cy="243" r="3" fill="white"/>
<circle cx="93" cy="243" r="3" fill="white"/>
<circle cx="123" cy="243" r="3" fill="white"/>
<circle cx="153" cy="243" r="3" fill="white"/>
<circle cx="183" cy="243" r="3" fill="white"/>
<circle cx="213" cy="243" r="3" fill="white"/>
<circle cx="243" cy="243" r="3" fill="white"/>
<circle cx="273" cy="243" r="3" fill="white"/>
<circle cx="303" cy="243" r="3" fill="white"/>
<circle cx="333" cy="243" r="3" fill="white"/>
<circle cx="363" cy="243" r="3" fill="white"/>
<circle cx="393" cy="243" r="3" fill="white"/>
<circle cx="423" cy="243" r="3" fill="white"/>
<circle cx="453" cy="243" r="3" fill="white"/>
<circle cx="483" cy="243" r="3" fill="white"/>
<circle cx="513" cy="243" r="3" fill="white"/>
<circle cx="543" cy="243" r="3" fill="white"/>
<circle cx="573" cy="243" r="3" fill="white"/>
<circle cx="603" cy="243" r="3" fill="white"/>
<circle cx="633" cy="243" r="3" fill="white"/>
<circle cx="663" cy="243" r="3" fill="white"/>
<circle cx="693" cy="243" r="3" fill="white"/>
<circle cx="723" cy="243" r="3" fill="white"/>
<circle cx="753" cy="243" r="3" fill="white"/>
<circle cx="783" cy="243" r="3" fill="white"/>
<circle cx="813" cy="243" r="3" fill="white"/>
<circle cx="843" cy="243" r="3" fill="white"/>
<circle cx="873" cy="243" r="3" fill="white"/>
<circle cx="903" cy="243" r="3" fill="white"/>
<circle cx="933" cy="243" r="3" fill="white"/>
<circle cx="963" cy="243" r="3" fill="white"/>
<circle cx="993" cy="243" r="3" fill="white"/>
<circle cx="1023" cy="243" r="3" fill="white"/>
<circle cx="1053" cy="243" r="3" fill="white"/>
<circle cx="1083" cy="243" r="3" fill="white"/>
<circle cx="1113" cy="243" r="3" fill="white"/>
<circle cx="1143" cy="243" r="3" fill="white"/>
<circle cx="1173" cy="243" r="3" fill="white"/>
<circle cx="1203" cy="243" r="3" fill="white"/>
<circle cx="33" cy="273" r="3" fill="white"/>
<circle cx="63" cy="273" r="3" fill="white"/>
<circle cx="93" cy="273" r="3" fill="white"/>
<circle cx="123" cy="273" r="3" fill="white"/>
<circle cx="153" cy="273" r="3" fill="white"/>
<circle cx="183" cy="273" r="3" fill="white"/>
<circle cx="213" cy="273" r="3" fill="white"/>
<circle cx="243" cy="273" r="3" fill="white"/>
<circle cx="273" cy="273" r="3" fill="white"/>
<circle cx="303" cy="273" r="3" fill="white"/>
<circle cx="333" cy="273" r="3" fill="white"/>
<circle cx="363" cy="273" r="3" fill="white"/>
<circle cx="393" cy="273" r="3" fill="white"/>
<circle cx="423" cy="273" r="3" fill="white"/>
<circle cx="453" cy="273" r="3" fill="white"/>
<circle cx="483" cy="273" r="3" fill="white"/>
<circle cx="513" cy="273" r="3" fill="white"/>
<circle cx="543" cy="273" r="3" fill="white"/>
<circle cx="573" cy="273" r="3" fill="white"/>
<circle cx="603" cy="273" r="3" fill="white"/>
<circle cx="633" cy="273" r="3" fill="white"/>
<circle cx="663" cy="273" r="3" fill="white"/>
<circle cx="693" cy="273" r="3" fill="white"/>
<circle cx="723" cy="273" r="3" fill="white"/>
<circle cx="753" cy="273" r="3" fill="white"/>
<circle cx="783" cy="273" r="3" fill="white"/>
<circle cx="813" cy="273" r="3" fill="white"/>
<circle cx="843" cy="273" r="3" fill="white"/>
<circle cx="873" cy="273" r="3" fill="white"/>
<circle cx="903" cy="273" r="3" fill="white"/>
<circle cx="933" cy="273" r="3" fill="white"/>
<circle cx="963" cy="273" r="3" fill="white"/>
<circle cx="993" cy="273" r="3" fill="white"/>
<circle cx="1023" cy="273" r="3" fill="white"/>
<circle cx="1053" cy="273" r="3" fill="white"/>
<circle cx="1083" cy="273" r="3" fill="white"/>
<circle cx="1113" cy="273" r="3" fill="white"/>
<circle cx="1143" cy="273" r="3" fill="white"/>
<circle cx="1173" cy="273" r="3" fill="white"/>
<circle cx="1203" cy="273" r="3" fill="white"/>
<circle cx="33" cy="303" r="3" fill="white"/>
<circle cx="63" cy="303" r="3" fill="white"/>
<circle cx="93" cy="303" r="3" fill="white"/>
<circle cx="123" cy="303" r="3" fill="white"/>
<circle cx="153" cy="303" r="3" fill="white"/>
<circle cx="183" cy="303" r="3" fill="white"/>
<circle cx="213" cy="303" r="3" fill="white"/>
<circle cx="243" cy="303" r="3" fill="white"/>
<circle cx="273" cy="303" r="3" fill="white"/>
<circle cx="303" cy="303" r="3" fill="white"/>
<circle cx="333" cy="303" r="3" fill="white"/>
<circle cx="363" cy="303" r="3" fill="white"/>
<circle cx="393" cy="303" r="3" fill="white"/>
<circle cx="423" cy="303" r="3" fill="white"/>
<circle cx="453" cy="303" r="3" fill="white"/>
<circle cx="483" cy="303" r="3" fill="white"/>
<circle cx="513" cy="303" r="3" fill="white"/>
<circle cx="543" cy="303" r="3" fill="white"/>
<circle cx="573" cy="303" r="3" fill="white"/>
<circle cx="603" cy="303" r="3" fill="white"/>
<circle cx="633" cy="303" r="3" fill="white"/>
<circle cx="663" cy="303" r="3" fill="white"/>
<circle cx="693" cy="303" r="3" fill="white"/>
<circle cx="723" cy="303" r="3" fill="white"/>
<circle cx="753" cy="303" r="3" fill="white"/>
<circle cx="783" cy="303" r="3" fill="white"/>
<circle cx="813" cy="303" r="3" fill="white"/>
<circle cx="843" cy="303" r="3" fill="white"/>
<circle cx="873" cy="303" r="3" fill="white"/>
<circle cx="903" cy="303" r="3" fill="white"/>
<circle cx="933" cy="303" r="3" fill="white"/>
<circle cx="963" cy="303" r="3" fill="white"/>
<circle cx="993" cy="303" r="3" fill="white"/>
<circle cx="1023" cy="303" r="3" fill="white"/>
<circle cx="1053" cy="303" r="3" fill="white"/>
<circle cx="1083" cy="303" r="3" fill="white"/>
<circle cx="1113" cy="303" r="3" fill="white"/>
<circle cx="1143" cy="303" r="3" fill="white"/>
<circle cx="1173" cy="303" r="3" fill="white"/>
<circle cx="1203" cy="303" r="3" fill="white"/>
<circle cx="1233" cy="3" r="3" fill="white"/>
<circle cx="1233" cy="33" r="3" fill="white"/>
<circle cx="1233" cy="63" r="3" fill="white"/>
<circle cx="1233" cy="93" r="3" fill="white"/>
<circle cx="1233" cy="123" r="3" fill="white"/>
<circle cx="1233" cy="153" r="3" fill="white"/>
<circle cx="1233" cy="183" r="3" fill="white"/>
<circle cx="1233" cy="213" r="3" fill="white"/>
<circle cx="1233" cy="243" r="3" fill="white"/>
<circle cx="1233" cy="273" r="3" fill="white"/>
<circle cx="1233" cy="303" r="3" fill="white"/>
<circle cx="1263" cy="3" r="3" fill="white"/>
<circle cx="1263" cy="33" r="3" fill="white"/>
<circle cx="1263" cy="63" r="3" fill="white"/>
<circle cx="1263" cy="93" r="3" fill="white"/>
<circle cx="1263" cy="123" r="3" fill="white"/>
<circle cx="1263" cy="153" r="3" fill="white"/>
<circle cx="1263" cy="183" r="3" fill="white"/>
<circle cx="1263" cy="213" r="3" fill="white"/>
<circle cx="1263" cy="243" r="3" fill="white"/>
<circle cx="1263" cy="273" r="3" fill="white"/>
<circle cx="1263" cy="303" r="3" fill="white"/>
<circle cx="3" cy="3" r="3" fill="white"/>
<circle cx="3" cy="33" r="3" fill="white"/>
<circle cx="3" cy="63" r="3" fill="white"/>
<circle cx="3" cy="93" r="3" fill="white"/>
<circle cx="3" cy="123" r="3" fill="white"/>
<circle cx="3" cy="153" r="3" fill="white"/>
<circle cx="3" cy="183" r="3" fill="white"/>
<circle cx="3" cy="213" r="3" fill="white"/>
<circle cx="3" cy="243" r="3" fill="white"/>
<circle cx="3" cy="273" r="3" fill="white"/>
<circle cx="3" cy="303" r="3" fill="white"/>
<circle cx="1293" cy="3" r="3" fill="white"/>
<circle cx="1293" cy="33" r="3" fill="white"/>
<circle cx="1293" cy="63" r="3" fill="white"/>
<circle cx="1293" cy="93" r="3" fill="white"/>
<circle cx="1293" cy="123" r="3" fill="white"/>
<circle cx="1293" cy="153" r="3" fill="white"/>
<circle cx="1293" cy="183" r="3" fill="white"/>
<circle cx="1293" cy="213" r="3" fill="white"/>
<circle cx="1293" cy="243" r="3" fill="white"/>
<circle cx="1293" cy="273" r="3" fill="white"/>
<circle cx="1293" cy="303" r="3" fill="white"/>
<circle cx="1323" cy="3" r="3" fill="white"/>
<circle cx="1323" cy="33" r="3" fill="white"/>
<circle cx="1323" cy="63" r="3" fill="white"/>
<circle cx="1323" cy="93" r="3" fill="white"/>
<circle cx="1323" cy="123" r="3" fill="white"/>
<circle cx="1323" cy="153" r="3" fill="white"/>
<circle cx="1323" cy="183" r="3" fill="white"/>
<circle cx="1323" cy="213" r="3" fill="white"/>
<circle cx="1323" cy="243" r="3" fill="white"/>
<circle cx="1323" cy="273" r="3" fill="white"/>
<circle cx="1323" cy="303" r="3" fill="white"/>
</svg>
