<svg width="32" height="32" viewBox="0 0 32 32" fill="none" xmlns="http://www.w3.org/2000/svg">
<rect width="32" height="32" rx="8" fill="#E93F7B"/>
<path d="M20.7826 6H23.1739L25.1304 7.08696L26 8.6087L26.2174 9.26087V11L25.1304 13.1739L23.3913 15.3478L23.6087 16.2174L25.5652 18.3913L26.4348 20.1304V21.8696L25.3478 23.8261L23.3913 25.1304L21.4348 25.3478L19.4783 24.6957L17.7391 23.3913L16.2174 21.4348L15.3478 22.3043L14.0435 24.0435L12.5217 25.3478L10.5652 26L8.82609 25.5652L7.52174 24.4783L6.21739 21.8696V19.913L7.95652 16.4348L8.17391 15.7826L6.43478 13.1739L6 11.6522L6.21739 9.47826L7.30435 7.73913L8.6087 6.65217L9.47826 6.21739H11.2174L13.3913 7.30435L15.3478 9.69565L16 10.3478L17.087 8.3913L19.0435 6.65217L20.7826 6Z" fill="#FFFEF8"/>
<path d="M14.478 12.9563H16.8693L18.1737 13.8259L19.0432 15.3476L19.2606 16.4346L18.6084 17.9563L17.0867 19.2607L15.1302 19.4781L13.6084 18.8259L12.7389 17.739L12.5215 15.565L13.391 13.8259L14.478 12.9563Z" fill="white"/>
</svg>
