<svg width="64" height="97" viewBox="0 0 64 97" fill="none" xmlns="http://www.w3.org/2000/svg">
<g clip-path="url(#clip0_1427_9152)">
<path fill-rule="evenodd" clip-rule="evenodd" d="M24.3489 45.214C18.7093 44.2071 -0.691079 43.1932 0.0189945 9.88306C0.183399 2.14966 6.76021 -1.69817 10.8524 5.94375C10.9279 6.08513 12.3864 8.80836 12.6986 6.7178C13.63 0.486423 21.3717 -1.48387 24.9387 5.94823C27.0594 10.368 25.8388 3.04205 30.6359 0.533122C36.0638 -2.30525 37.4891 8.57998 39.6878 4.26708C40.387 2.89619 45.8693 -4.60307 51.4123 4.26005C53.2726 7.2334 58.632 39.2155 31.7606 44.3459C31.037 44.4841 31.2046 44.6728 30.5669 45.0477C27.2794 44.8545 27.2826 44.3568 24.3489 45.214Z" fill="white"/>
<path fill-rule="evenodd" clip-rule="evenodd" d="M24.3477 45.2141C27.2814 44.3569 27.2782 44.8546 30.5656 45.0478C31.2565 50.0675 31.2572 62.1061 31.2572 63.5903C31.2572 63.6984 31.2572 65.8164 32.5897 63.8052C40.0026 52.6168 53.6904 50.7392 63.0838 52.9302C64.5692 53.2763 62.4153 56.7595 62.2381 57.0454C49.3883 77.8263 36.7829 75.3257 33.0886 75.1913C30.7979 75.1082 32.0517 76.5961 32.5999 94.3256C32.6735 96.704 28.3523 96.0681 25.4205 96.04C23.1719 96.0189 23.875 90.8974 23.8775 89.2041C23.9549 47.3481 23.5327 47.2515 24.3477 45.2141Z" fill="white"/>
</g>
<defs>
<clipPath id="clip0_1427_9152">
<rect width="64" height="96.6275" fill="white"/>
</clipPath>
</defs>
</svg>
