<svg width="1440" height="15" viewBox="0 0 1440 15" fill="none" xmlns="http://www.w3.org/2000/svg">
<path fill-rule="evenodd" clip-rule="evenodd" d="M777.964 15.0001V1.5716C777.964 1.5716 734.744 -2.64496e-07 713.134 -2.64496e-07C691.524 -2.64496e-07 669.913 1.5716 648.303 1.5716C626.693 1.5716 605.083 -2.64496e-07 583.473 -2.64496e-07C561.863 -2.64496e-07 540.253 1.5716 518.643 1.5716C497.033 1.5716 475.422 -2.64496e-07 453.812 -2.64496e-07C432.202 -2.64496e-07 410.592 1.5716 388.982 1.5716C367.372 1.5716 345.762 -2.64496e-07 324.152 -2.64496e-07C302.542 -2.64496e-07 280.931 1.5716 259.321 1.5716C237.711 1.5716 216.101 -2.64496e-07 194.491 -2.64496e-07C172.881 -2.64496e-07 151.271 1.5716 129.661 1.5716C108.051 1.5716 86.4403 -2.64496e-07 64.8303 -2.64496e-07C43.2203 -2.64496e-07 0 1.5716 0 1.5716V15.0001H777.964Z" fill="#E93F7A"/>
<path fill-rule="evenodd" clip-rule="evenodd" d="M1440 15.0001V1.5716C1440 1.5716 1396.78 -2.64496e-07 1375.17 -2.64496e-07C1353.56 -2.64496e-07 1331.95 1.5716 1310.34 1.5716C1288.73 1.5716 1267.12 -2.64496e-07 1245.51 -2.64496e-07C1223.9 -2.64496e-07 1202.29 1.5716 1180.68 1.5716C1159.07 1.5716 1137.46 -2.64496e-07 1115.85 -2.64496e-07C1094.24 -2.64496e-07 1072.63 1.5716 1051.02 1.5716C1029.41 1.5716 1007.8 -2.64496e-07 986.187 -2.64496e-07C964.577 -2.64496e-07 942.967 1.5716 921.357 1.5716C899.747 1.5716 878.136 -2.64496e-07 856.526 -2.64496e-07C834.916 -2.64496e-07 813.306 1.5716 791.696 1.5716C770.086 1.5716 748.476 -2.64496e-07 726.865 -2.64496e-07C705.255 -2.64496e-07 662.035 1.5716 662.035 1.5716V15.0001H1440Z" fill="#E93F7A"/>
</svg>
