<svg width="48" height="48" viewBox="0 0 48 48" fill="none" xmlns="http://www.w3.org/2000/svg">
<g clip-path="url(#clip0_1427_8736)">
<path d="M23.9729 47.9437C37.2128 47.9437 47.9459 37.2106 47.9459 23.9707C47.9459 10.7308 37.2128 -0.00222778 23.9729 -0.00222778C10.733 -0.00222778 0 10.7308 0 23.9707C0 37.2106 10.733 47.9437 23.9729 47.9437Z" fill="#FFFDF3"/>
<path fill-rule="evenodd" clip-rule="evenodd" d="M10.0599 18.9159L10.4496 30.443L9.31641 30.4616L9.63109 32.0799L10.7472 33.2198C10.7472 33.2198 12.503 39.2465 17.5418 37.8803C22.5792 36.5128 18.6721 20.6544 18.6721 20.6544C14.9793 20.7436 13.0006 21.3245 10.0599 18.9159Z" fill="#E93F7A" stroke="#E93F7A" stroke-width="0.5" stroke-miterlimit="1.5" stroke-linecap="round" stroke-linejoin="round"/>
<path fill-rule="evenodd" clip-rule="evenodd" d="M12.2211 19.6952L11.1153 25.512C11.1153 25.512 5.46821 22.81 11.1153 17.1629C16.7624 11.5173 25.412 7.87477 34.7001 17.1629C43.9882 26.451 36.8169 39.9827 34.7001 39.9827C32.5819 39.9827 32.1735 37.4561 32.1735 37.4561L30.9081 40.0992L24.2299 40.5651L25.169 36.7644L22.4669 40.4213L15.8593 39.3428L18.6763 36.3086L18.6418 26.2871L17.2527 26.5618L16.2964 20.3208L15.8593 26.5618L13.2335 26.2756L12.2211 19.6952Z" fill="#E93F7A" stroke="#FFFDF3" stroke-width="0.5" stroke-miterlimit="1.5" stroke-linecap="round" stroke-linejoin="round"/>
<path fill-rule="evenodd" clip-rule="evenodd" d="M23.143 11.4196C23.143 11.4196 22.0426 9.45482 21.4378 9.13351C20.8618 8.82733 19.4956 9.71683 19.5139 9.49052C19.5377 9.19463 20.3921 7.08828 20.997 7.40959C21.6018 7.73089 23.143 11.4196 23.143 11.4196C23.143 11.4196 23.8428 9.15953 24.3087 8.8237C24.7747 8.48727 25.8638 9.19947 25.9387 9.40339C26.0135 9.6067 25.1216 9.65451 24.6887 9.76161C24.1311 9.89957 23.143 11.4196 23.143 11.4196Z" fill="#E93F7A"/>
<path d="M23.143 11.4196C23.143 11.4196 22.0426 9.45482 21.4378 9.13351C20.8618 8.82733 19.4956 9.71683 19.5139 9.49052C19.5377 9.19463 20.3921 7.08828 20.997 7.40959C21.6018 7.73089 23.143 11.4196 23.143 11.4196ZM23.143 11.4196C23.143 11.4196 23.8428 9.15953 24.3087 8.8237C24.7747 8.48727 25.8638 9.19947 25.9387 9.40339C26.0135 9.6067 25.1216 9.65451 24.6887 9.76161C24.1311 9.89957 23.143 11.4196 23.143 11.4196Z" stroke="#E93F7A" stroke-width="0.5" stroke-miterlimit="1.5" stroke-linecap="round" stroke-linejoin="round"/>
<path d="M12.7314 27.7642H13.8232C14.2749 27.7643 14.6484 28.1573 14.6484 28.6528V29.6147C14.6483 30.1085 14.2747 30.5023 13.8232 30.5024H12.7314C12.2798 30.5024 11.9064 30.1086 11.9062 29.6147V28.6528C11.9062 28.1573 12.2797 27.7642 12.7314 27.7642Z" fill="#FFFDF3" stroke="#E93F7A" stroke-width="0.136881"/>
</g>
<defs>
<clipPath id="clip0_1427_8736">
<rect width="48" height="48" fill="white"/>
</clipPath>
</defs>
</svg>
